Plot: Siberian gulag escapees walk 4000 miles overland to freedom in India.
IMDB:  http://www.imdb.com/title/tt1023114/
IMDB Rating: 7.6

General Info
Size: 1.36GB
Format: AVI
Runtime: 2:05:16
Subtitles: Hardcoded English for most of the non english parts.



Sources
Video - The Way Back TS XViD - IMAGiNE
Audio - The Way Back TS XViD - IMAGiNE
(THANKS)



Video Info
ID : 0
Format : MPEG-4 Visual
Format profile : Advanced Simple@L5
Format settings, BVOP : Yes
Format settings, QPel : No
Format settings, GMC : No warppoints
Format settings, Matrix : Default (H.263)
Muxing mode : Packed bitstream
Codec ID : XVID
Codec ID/Hint : XviD
Duration : 2h 5mn
Bit rate : 1 393 Kbps
Width : 720 pixels
Height : 304 pixels
Display aspect ratio : 2.35:1
Frame rate : 25.000 fps
Color space : YUV
Chroma subsampling : 4:2:0
Bit depth : 8 bits
Scan type : Progressive
Compression mode : Lossy
Bits/(Pixel*Frame) : 0.255
Stream size : 1.22 GiB (91%)
Writing library : XviD 1.0.3 (UTC 2004-12-20)


Audio Info
ID : 1
Format : MPEG Audio
Format version : Version 1
Format profile : Layer 3
Codec ID : 55
Codec ID/Hint : MP3
Duration : 2h 5mn
Bit rate mode : Constant
Bit rate : 128 Kbps
Channel(s) : 2 channels
Sampling rate : 44.1 KHz
Compression mode : Lossy
Stream size : 115 MiB (8%)
Alignment : Split accross interleaves
Interleave, duration : 40 ms (1.00 video frame)
Interleave, preload duration : 500 ms


Encoders Notes
I made the subtitles by translating
the hardcoded french subtitles in google translate.
As we all know google translate isnt great so it
might not make sense in some places but i did the best i could.
I couldnt find any hardcoded french subtitles after 35 minutes.
Once i made the subtitles i Then dropped the source into vdubmod.
There i lowered the brightness,
increased the contrast & saturation.
After that i lightly de-noised & sharpened it,
changed the colours with a rgb eq.
Finaly i Hardcoded the subtitles.
The video is prety good.
It goes blurry a few times, but apart from that its fine.
The audio isnt to bad.
Check the sample first to make sure your happy with the quality.
Enjoy the film.


I am looking for;
Cammers, Cams, Screeners (any type), Cam audio, Line audio,
Un-released R6's R5's R4's R2's R1's,
A 25GB+ FTP server & A Windows Server.
If you can provide any of these please
contact me at illusion@hushmail.me
 
http://leetleech.org/images/76877903408052251077.jpg 
http://leetleech.org/images/92207502740350624917.jpg 
http://leetleech.org/images/39398668356735054384.jpg 
http://leetleech.org/images/38146087340232781086.jpg 
http://leetleech.org/images/11720129020008781801.jpg